<?xml version="1.0" encoding="UTF-8"?>
<svg id="Layer_1" xmlns="http://www.w3.org/2000/svg" version="1.1" viewBox="0 0 1000 1000">
  <!-- Generator: Adobe Illustrator 29.0.0, SVG Export Plug-In . SVG Version: 2.1.0 Build 186)  -->
  <defs>
    <style>
      .st0 {
        fill: #883f1e;
      }
    </style>
  </defs>
  <g>
    <path class="st0" d="M617.8,588.2v-3.6h22.5c4.1,0,7-.9,8.4-1.4,1.1-.5,2.4-.6,3.6-.5.7,0,1.4.3,2,.5,2.2.9,4.1,1.4,4.1,1.4h33.2v-59l-10,2.4v46.9h-19.8v-.8c6.9-6.7,8.6-14.8,8.6-14.8v-10.1h-40.4v10.4c1.6,8,8.9,14.7,8.9,14.7v.5h-21.3v-21.6l-10,2.6v33.7c0,3.9-4.7,5.4-4.7,5.4h-9.7v9.9h7.9c9.2,0,16.6-7.4,16.6-16.6ZM650.5,559.3h9.8c-4.7,8.9-9.8,11.9-9.8,11.9,0,0-5.1-3-9.8-11.9h9.8Z"/>
    <polygon class="st0" points="712.9 525.6 703.3 528 703.3 584.6 712.9 584.6 712.9 525.6"/>
    <path class="st0" d="M324.4,565.1c0-8.8-7.2-16-16-16h-16.1v10h16.4c3.1,0,5.5,2.5,5.5,5.5v9.9h-27.5v9.9h37.7v-19.4Z"/>
    <path class="st0" d="M436,582.9c.2-.1.5-.2.8-.2h0c.3,0,.5,0,.8.2,2.3,1.3,4.6,1.8,4.6,1.8h25.1v-59l-9.5,2.4v46.8h-14.5l-.8-.4v-48.8l-10,2.4v43.1c0,2.1-1.7,3.7-3.7,3.7h-16.2v-.8c6.9-6.7,8.6-14.8,8.6-14.8v-10.1h-40.4v10.4c1.6,8,8.9,14.7,8.9,14.7v.5h-21.5v-25.7h-20.9c-8.4,0-15.2,6.8-15.2,15.2v4.4c0,8.8,7.1,15.9,15.9,15.9h10.2v5c0,3.9-4.7,5.4-4.7,5.4h-17.1v9.9h15.3c9.2,0,16.6-7.4,16.6-16.6v-3.6h22.7c4.1,0,7-.9,8.4-1.4.9-.4,1.8-.5,2.8-.5s1.9.2,2.8.5c2.2.9,4.2,1.4,4.2,1.4h21.5c2.3-.2,4.5-1.3,5.4-1.8ZM358,574.3h-11.5c-2.4,0-4.4-2-4.4-4.4v-7c0-1.8,1.5-3.3,3.3-3.3h12.6v14.7ZM401.2,571.1s-5.1-3-9.8-11.9h19.7c-4.7,8.9-9.8,11.9-9.8,11.9Z"/>
    <path class="st0" d="M549.3,584.6c2,0,4.8-.2,4.8-2.2,0,2,2.9,2.2,4.8,2.2h31.2v-31.4l-9.9,2.4v18.8h-20.5l-.2-21.2-5.3,1.2-4.7,1.2v18.8h-19.1v-25.3h-21.2c-8.8,0-15.9,7.1-15.9,15.9v19.6h56.1ZM520.3,574.4h-16.7v-10.8c0-2.4,1.9-4.3,4.3-4.3h12.5v15.1Z"/>
    <polygon class="st0" points="541.7 597.2 547.5 603.4 553.6 597.3 547.7 591.1 541.7 597.2"/>
    <polygon class="st0" points="459.1 621.9 466.8 630 474.7 622 467.1 614 459.1 621.9"/>
    <polygon class="st0" points="554.7 597.2 560.5 603.4 566.6 597.3 560.7 591.1 554.7 597.2"/>
    <polygon class="st0" points="514.1 536.9 508.2 530.8 502.1 536.8 508 543.1 514.1 536.9"/>
    <polygon class="st0" points="527 536.9 521.2 530.8 515.1 536.8 520.9 543.1 527 536.9"/>
    <polygon class="st0" points="579.7 591.1 573.6 597.2 579.5 603.4 585.6 597.3 579.7 591.1"/>
    <path class="st0" d="M658.2,662.1s-3.3,2.4-5.6,2.7c-2.4.3-6.5.2-6.9-4v-25.9l-10.9.9v28.1s.1,7.6,8.9,9,15.4-4.3,15.4-4.3l.6,3h9.2v-36.8l-10.5,1-.2,26.2Z"/>
    <path class="st0" d="M548.1,634.7c-6.9-1.1-12.8,2.2-14.9,3.7v-3.5s-10.4,1.1-10.4,1.1v35.9h10.5l.2-26.5s3.3-2.4,5.6-2.7c2.4-.3,6.5-.2,6.9,4v25.2h10.9v-28.2s-.1-7.6-8.9-9Z"/>
    <path class="st0" d="M702.2,616.1v18.7c-.1,0-9.4-2.1-15.9,1.4-6.5,3.6-10.8,11-9.6,22.7,1.3,12.4,13.3,19,26.2,10.6l.7,2.2h9.4v-56.6l-10.9,1ZM702,662.7s-3.9,3-8.9,1.9c-5-1.2-5.5-6.8-5-13.1s4.4-10.8,13.9-8.8v20.1Z"/>
    <path class="st0" d="M606.9,615.8h-4.6c-10.2,0-18.4,8.2-18.4,18.4v20.4c0,10.2,8.2,18.4,18.4,18.4h4.6c10.2,0,18.4-8.2,18.4-18.4v-20.4c0-10.2-8.2-18.4-18.4-18.4ZM615.5,655.1c0,4.6-3.7,8.4-8.4,8.4h-5c-4.6,0-8.4-3.7-8.4-8.4v-21.5c0-4.6,3.7-8.4,8.4-8.4h5c4.6,0,8.4,3.7,8.4,8.4v21.5Z"/>
    <path class="st0" d="M495.9,634.4c-9.2.7-15,5.4-15,5.4l4.3,6.6c16.9-9.5,16.8,0,16.8,0v3s-7.6.1-13.2,2.1c-5.6,2-10.5,5.1-9.6,12.3.8,7.2,7.3,9.1,9.5,9.2,2.2.1,8.8.3,13.9-4l1.2,2.6h9.1v-28.3c-.9-7.5-7.7-9.9-17-9.1ZM502.2,662.9s-3.4,2.2-6.9,2.5c-3,.3-6.1-2.2-4.5-5.3.5-1,1.4-1.8,2.4-2.3,1.6-.8,4.6-1.9,9-1.9v6.9Z"/>
    <path class="st0" d="M390.6,634.4c-9.2.7-15,5.4-15,5.4l4.3,6.6c16.9-9.5,16.8,0,16.8,0v3s-7.6.1-13.2,2.1c-5.6,2-10.5,5.1-9.6,12.3.8,7.2,7.3,9.1,9.5,9.2,2.2.1,8.8.3,13.9-4l1.2,2.6h9.1v-28.3c-.9-7.5-7.7-9.9-17-9.1ZM396.9,662.9s-3.4,2.2-6.9,2.5c-3,.3-6.1-2.2-4.5-5.3.5-1,1.4-1.8,2.4-2.3,1.6-.8,4.6-1.9,9-1.9v6.9Z"/>
    <path class="st0" d="M446.6,635.9c-7.1-4.2-18.4,1.6-18.4,1.6v-22.5l-11,1.1v55.1s18,5.3,28.1-.9c6.7-4.1,8.2-10.5,8.4-14.4v-6.5c0,0-.6-9.6-7.2-13.5ZM442.6,654.8c0,4.1-2.8,8.2-6.1,9.5-3.3,1.4-8.4.5-8.4.5v-20.3c15.9-7.2,14.4,6.1,14.4,10.3Z"/>
    <polygon class="st0" points="461.5 671.8 472.4 671.8 472.4 634.7 461.5 635.6 461.5 671.8"/>
    <path class="st0" d="M357.9,639.7v-4.8l-11,1v36.1h10.7v-22.4s5-7.1,12.6-3.7l.4.2,1.6-11.2s-9.3-2.7-14.3,4.8Z"/>
    <path class="st0" d="M330.1,614.8h-19.3c-10.5,1.1-13.5,11.1-13.5,11.1l-11,46.6h11.1l5.1-21.3,11.3,11.5,11.9-11.7,3.5,20c.1.8.9,1.5,1.7,1.5h8.2c.6,0,1-.5.9-1.1l-10-56.6ZM313.9,636.8l-10.4,10.3,4.7-19.5c.3-1.3,1.4-2.2,2.7-2.2h10.3l3.9,22.2-11.2-10.8Z"/>
  </g>
  <polygon class="st0" points="548.5 485.4 549.3 489.8 513.1 494.1 507.2 494.1 471.4 489.6 449.3 489.5 450.4 484.6 471.6 484.9 472.4 480.8 509.8 484.4 509.8 489.1 548.5 485.4"/>
  <polygon class="st0" points="546.2 476 545.2 471.6 509.8 474.3 509.8 469.3 475.6 466.9 474.8 471.1 453.5 470.7 452.6 475.7 474.2 476 506.4 479 514.3 479 546.2 476"/>
  <polygon class="st0" points="543 462.1 542 457.8 509.8 459.1 509.8 454 478.6 453.1 478 457.3 456.7 456.8 455.7 461.9 479 462.1 509.1 464.1 511.1 464.1 543 462.1"/>
  <polygon class="st0" points="540.1 448 540.1 443.5 509.8 443.9 509.8 439 479.8 438.8 479.8 443 458.7 443 458.7 448 509 449 540.1 448"/>
  <polygon class="st0" points="539.8 429.2 539.8 433.7 458.7 433.6 458.7 428.8 479.9 428.8 479.9 424.6 509.8 424.1 509.8 429.1 539.8 429.2"/>
  <polygon class="st0" points="542 415 509.7 413.8 509.7 409 475.3 410.3 477.6 414.7 456.1 414.7 458.3 419.3 483.4 419.3 507.8 418.9 540.1 419.3 542 415"/>
  <path class="st0" d="M546.2,405.5l2-4.4-38.4-2.4v-5.1s-36.3,3.2-40.3,3.4l1.7,3.6-21.4-.3,2.5,5.2,22.7.3,33.8-2.2,37.4,1.9Z"/>
  <polygon class="st0" points="552.3 392.2 554.2 387.7 509.9 383.7 509.9 378.5 463.5 383.6 465.3 387.2 444 387.2 445.9 391.7 457.5 392.2 469.5 392.2 509.5 388.5 552.3 392.2"/>
  <polygon class="st0" points="558.4 379 560.2 374.8 509.8 368.5 509.8 363.6 457.7 370.5 459.1 373.7 437.8 373.7 440.1 378.5 462.1 379 509.9 373.4 558.4 379"/>
  <path class="st0" d="M564,366l2-4-56.2-8.6v-4.9l-21.2,3.2s-9.2,10.4-24.4,4.2c0,0-9.3,2-12.4,1.8l1.7,3.5-21.4-.3,2.4,5h22l53-7.7,54.6,7.7Z"/>
  <path class="st0" d="M560.9,351.8s3.2-2.6,5-7.4l7.5,1.5-3.7,7.9-8.9-2Z"/>
  <path class="st0" d="M525.2,345.8s-2.1-2-3.9-5.7c0,0-9.9-1.8-11.4-1.8v-5.1s-6,1.4-9.1,1.6c0,0-2.4,7.3-6.1,11l13.6-2.4h2.8s11.4,2.3,14.1,2.4Z"/>
  <path class="st0" d="M517,329.5s-1.4-5.4-1-10l-6-1.4-6.2,1.2s.5,7-1,10.2l6.8-1.4,7.4,1.4Z"/>
  <path class="st0" d="M446.2,345.3l1.5,3.1h-21.3l2.2,4.6,22.9.3,7.4-1.4c-2.6-1.7-5.2-7.9-5.2-7.9,0,0-4.2,1.2-7.6,1.2Z"/>
</svg>